<svg width="21" height="21" viewBox="0 0 21 21" fill="none" xmlns="http://www.w3.org/2000/svg">
<circle cx="10.5" cy="10.5" r="9.5" stroke="white" stroke-width="2"/>
<path d="M12.7223 9.836C12.9223 9.836 13.0903 9.904 13.2263 10.04C13.3623 10.176 13.4303 10.344 13.4303 10.544C13.4303 10.744 13.3623 10.916 13.2263 11.06C13.0903 11.196 12.9223 11.264 12.7223 11.264H11.2103V12.764C11.2103 12.964 11.1423 13.132 11.0063 13.268C10.8783 13.404 10.7103 13.472 10.5023 13.472C10.3023 13.472 10.1343 13.404 9.99834 13.268C9.86234 13.132 9.79434 12.964 9.79434 12.764V11.264H8.28234C8.08234 11.264 7.91434 11.196 7.77834 11.06C7.64234 10.916 7.57434 10.744 7.57434 10.544C7.57434 10.344 7.64234 10.176 7.77834 10.04C7.91434 9.904 8.08234 9.836 8.28234 9.836H9.79434V8.324C9.79434 8.124 9.86234 7.956 9.99834 7.82C10.1343 7.684 10.3023 7.616 10.5023 7.616C10.7023 7.616 10.8703 7.684 11.0063 7.82C11.1423 7.956 11.2103 8.124 11.2103 8.324V9.836H12.7223Z" fill="white"/>
</svg>
