<svg width="191" height="56" viewBox="0 0 191 56" fill="none" xmlns="http://www.w3.org/2000/svg">
<path d="M37.0153 11.0384C33.0783 11.0384 29.8772 14.2211 29.8772 18.1581V26.0506C29.1413 26.1057 28.387 26.1241 27.6143 26.1241C26.8416 26.1241 26.0873 26.1609 25.3514 26.1977V18.1581C25.2962 14.2211 22.0399 11.0568 18.0845 11.1304C14.2211 11.1856 11.112 14.2947 11.0568 18.1581V37.0337C11.112 40.9707 14.3683 44.1351 18.3237 44.0615C22.1871 44.0063 25.2962 40.8971 25.3514 37.0337V29.1413C26.0873 29.0861 26.8416 29.0677 27.6143 29.0677C28.387 29.0677 29.1413 29.0309 29.8772 28.9941V37.0521C29.9324 40.9891 33.1887 44.1535 37.1441 44.0799C41.0075 44.0247 44.1166 40.9155 44.1718 37.0521V18.1581C44.135 14.2211 40.9523 11.0384 37.0153 11.0384ZM18.1765 13.9636C20.4946 13.9636 22.3895 15.8401 22.3895 18.1581V26.5289C20.2922 26.8232 18.2501 27.412 16.3184 28.2398C15.4721 28.6078 14.681 29.0861 13.9635 29.638V18.1581C13.9819 15.8401 15.8584 13.9636 18.1765 13.9636ZM22.4079 37.0337C22.4079 39.3702 20.513 41.2467 18.1949 41.2467C15.8584 41.2467 13.9819 39.3518 13.9819 37.0337V35.1388C13.9819 33.4647 15.3065 31.8825 17.5326 30.889C19.0964 30.2083 20.7337 29.73 22.4263 29.4541L22.4079 37.0337ZM37.0153 41.2283C34.6972 41.2283 32.8023 39.3518 32.8023 37.0153V28.6446C34.8996 28.3502 36.9417 27.7615 38.8734 26.9336C39.7197 26.5657 40.5108 26.0873 41.2283 25.5354V37.0153C41.2099 39.3518 39.3334 41.2283 37.0153 41.2283ZM37.6776 24.2844C36.1138 24.9651 34.4765 25.4434 32.7839 25.7194V18.1581C32.7839 15.8217 34.6788 13.9452 36.9969 13.9452C39.3334 13.9452 41.2099 15.8401 41.2099 18.1581V20.053C41.2283 21.7272 39.9037 23.3094 37.6776 24.2844Z" fill="url(#paint0_linear_43_1523)"/>
<path d="M139.654 22.4814C135.201 22.4814 131.596 26.1057 131.596 30.5578C131.596 35.01 135.22 38.6158 139.672 38.6158C144.124 38.6158 147.73 35.01 147.73 30.5578C147.73 26.0873 144.124 22.4814 139.654 22.4814ZM145.099 30.5394C145.099 33.5566 142.652 35.985 139.654 35.985C136.636 35.985 134.208 33.5382 134.208 30.5394C134.208 27.5223 136.655 25.0939 139.672 25.0939C142.671 25.0939 145.099 27.5407 145.099 30.5394Z" fill="white"/>
<path d="M91.1585 22.5366C90.441 22.5366 89.8523 23.1253 89.8523 23.8428V24.6155C86.5776 21.5984 81.4815 21.8007 78.446 25.0754C75.4104 28.3502 75.6312 33.4462 78.9059 36.4817C81.9967 39.3333 86.7616 39.3333 89.8339 36.4817V37.236C89.8155 37.9535 90.3674 38.5606 91.0849 38.5974C91.8024 38.6158 92.4095 38.0639 92.4463 37.3464C92.4463 37.3096 92.4463 37.2728 92.4463 37.2544V23.8612C92.4647 23.1253 91.876 22.5366 91.1585 22.5366ZM89.8523 30.5578C89.8523 33.575 87.4055 36.0034 84.4067 36.0034C81.3896 36.0034 78.9611 33.5566 78.9611 30.5578C78.9611 27.5407 81.408 25.1122 84.4067 25.1122C87.4055 25.0938 89.8523 27.5223 89.8523 30.5578Z" fill="white"/>
<path d="M105.196 23.7877C105.196 24.5051 104.607 25.0939 103.889 25.0939H103.724C100.725 25.0939 98.2782 27.5223 98.2782 30.5394C98.2046 30.8154 98.2414 34.9548 98.2598 37.4016C98.1678 38.1191 97.5055 38.6158 96.8064 38.5239C96.8064 38.5239 96.8064 38.5239 96.788 38.5239H96.7696C96.1257 38.4135 95.6474 37.8248 95.6658 37.1625V23.8428C95.6658 23.1254 96.2545 22.5366 96.972 22.5366H97.0456C97.7631 22.5918 98.2966 23.1989 98.2782 23.9164V24.6155C99.7684 23.2357 101.7 22.4814 103.724 22.4814H103.889C104.607 22.4814 105.196 23.0702 105.196 23.7877Z" fill="white"/>
<path d="M163.276 29.2517V37.2545C163.276 37.972 162.687 38.5607 161.97 38.5607C161.252 38.5607 160.663 37.972 160.663 37.2545V35.9483V29.2517C160.663 26.9888 158.824 25.1675 156.579 25.1675C156.487 25.1675 156.395 25.1675 156.303 25.1859C154.132 25.3331 152.495 27.228 152.495 29.3989V30.981V35.9483V37.2545C152.495 37.972 151.906 38.5607 151.189 38.5607C150.471 38.5607 149.883 37.972 149.883 37.2545V23.8429C149.883 23.1254 150.471 22.5367 151.189 22.5367C151.906 22.5367 152.495 23.1254 152.495 23.8429V23.9717C153.562 23.107 154.887 22.6103 156.248 22.5551C159.946 22.3711 163.073 25.2227 163.276 28.9021C163.276 29.0125 163.276 29.1229 163.276 29.2517Z" fill="white"/>
<path d="M73.8098 17.827V37.3649C73.8098 38.0824 73.2395 38.6527 72.522 38.6527C71.8045 38.6527 71.2342 38.0824 71.2342 37.3649V28.5526H57.7674V37.3833C57.7674 38.1008 57.1971 38.6711 56.4796 38.6711C55.7621 38.6711 55.1918 38.1008 55.1918 37.3833V17.827C55.1918 17.1095 55.7621 16.5392 56.4796 16.5392C57.1971 16.5392 57.7674 17.1095 57.7674 17.827V26.3081H71.2158V17.827C71.2158 17.1095 71.7861 16.5392 72.5036 16.5392C73.2211 16.5392 73.7914 17.1095 73.7914 17.827H73.8098Z" fill="white"/>
<path d="M129.645 29.8588V37.2361C129.645 37.9536 129.057 38.5423 128.339 38.5423C127.622 38.5423 127.033 37.9536 127.033 37.2361V30.5027V28.7365C127.088 26.7128 125.488 25.0571 123.464 25.0019C121.44 24.9467 119.785 26.5473 119.729 28.571C119.729 28.6261 119.729 28.6813 119.729 28.7365V37.2361C119.748 37.9536 119.196 38.5607 118.478 38.5975C117.761 38.6159 117.154 38.0639 117.117 37.3464C117.117 37.3097 117.117 37.2729 117.117 37.2545V30.5211V28.7549C117.172 26.7312 115.572 25.0755 113.548 25.0203C111.524 24.9651 109.868 26.5657 109.813 28.5894C109.813 28.6445 109.813 28.6997 109.813 28.7549V37.2545C109.832 37.972 109.28 38.5791 108.562 38.6159C107.845 38.6343 107.238 38.0823 107.201 37.3648C107.201 37.3281 107.201 37.2913 107.201 37.2729V23.8797C107.201 23.1622 107.771 22.5734 108.489 22.5551C109.151 22.5551 109.703 23.0334 109.795 23.6957C112.536 21.7088 116.363 22.2791 118.423 24.9651C120.52 22.2239 124.457 21.7088 127.199 23.8061C128.744 25.0019 129.664 26.8416 129.645 28.7917V29.8588Z" fill="white"/>
<path d="M179.244 24.4315L170.432 43.4911C170.046 44.1166 169.236 44.319 168.611 43.951C168.077 43.6383 167.838 42.976 168.041 42.3872L170.414 37.2544L164.471 24.4315C164.085 23.806 164.288 22.9781 164.913 22.6102C165.539 22.2422 166.366 22.4262 166.734 23.0517C166.734 23.0517 166.734 23.0701 166.753 23.0701C166.808 23.1437 166.845 23.2357 166.863 23.3093L171.849 34.0901L176.834 23.3093C177.074 22.6102 177.809 22.2422 178.509 22.463C179.208 22.7022 179.576 23.4381 179.355 24.1372C179.336 24.2475 179.3 24.3395 179.244 24.4315Z" fill="white"/>
<defs>
<linearGradient id="paint0_linear_43_1523" x1="13.1301" y1="42.0617" x2="42.0617" y2="13.1302" gradientUnits="userSpaceOnUse">
<stop stop-color="#00AEE9"/>
<stop offset="1" stop-color="#69FABD"/>
</linearGradient>
</defs>
</svg>
