<svg width="34" height="34" viewBox="0 0 34 34" fill="none" xmlns="http://www.w3.org/2000/svg">
<path d="M26.0153 0.0383911C22.0783 0.0383911 18.8772 3.22112 18.8772 7.15813V15.0506C18.1413 15.1057 17.387 15.1241 16.6143 15.1241C15.8416 15.1241 15.0873 15.1609 14.3514 15.1977V7.15813C14.2962 3.22112 11.0399 0.0567884 7.08452 0.130377C3.22109 0.185569 0.111954 3.29471 0.0567627 7.15813V26.0337C0.111954 29.9707 3.36827 33.1351 7.32368 33.0615C11.1871 33.0063 14.2962 29.8971 14.3514 26.0337V18.1413C15.0873 18.0861 15.8416 18.0677 16.6143 18.0677C17.387 18.0677 18.1413 18.0309 18.8772 17.9941V26.0521C18.9324 29.9891 22.1887 33.1535 26.1441 33.0799C30.0075 33.0247 33.1166 29.9155 33.1718 26.0521V7.15813C33.135 3.22112 29.9523 0.0383911 26.0153 0.0383911ZM7.1765 2.96356C9.49456 2.96356 11.3895 4.84008 11.3895 7.15813V15.5289C9.29219 15.8232 7.25009 16.412 5.31838 17.2398C4.47211 17.6078 3.68102 18.0861 2.96353 18.638V7.15813C2.98193 4.84008 4.85845 2.96356 7.1765 2.96356ZM11.4079 26.0337C11.4079 28.3702 9.51296 30.2467 7.1949 30.2467C4.85845 30.2467 2.98193 28.3518 2.98193 26.0337V24.1388C2.98193 22.4647 4.30653 20.8825 6.5326 19.889C8.09637 19.2083 9.73372 18.73 11.4263 18.4541L11.4079 26.0337ZM26.0153 30.2283C23.6972 30.2283 21.8023 28.3518 21.8023 26.0153V17.6446C23.8996 17.3502 25.9417 16.7615 27.8734 15.9336C28.7197 15.5657 29.5108 15.0873 30.2283 14.5354V26.0153C30.2099 28.3518 28.3334 30.2283 26.0153 30.2283ZM26.6776 13.2844C25.1138 13.9651 23.4765 14.4434 21.7839 14.7194V7.15813C21.7839 4.82168 23.6788 2.94516 25.9969 2.94516C28.3334 2.94516 30.2099 4.84008 30.2099 7.15813V9.05305C30.2283 10.7272 28.9037 12.3094 26.6776 13.2844Z" fill="url(#paint0_linear_43_1524)"/>
<defs>
<linearGradient id="paint0_linear_43_1524" x1="2.13014" y1="31.0617" x2="31.0617" y2="2.13016" gradientUnits="userSpaceOnUse">
<stop stop-color="#00AEE9"/>
<stop offset="1" stop-color="#69FABD"/>
</linearGradient>
</defs>
</svg>
